<?xml version="1.0" encoding="UTF-8" standalone="no"?>
<!DOCTYPE svg PUBLIC "-//W3C//DTD SVG 1.1//EN"
 "http://www.w3.org/Graphics/SVG/1.1/DTD/svg11.dtd">
<!-- Generated by graphviz version 12.2.1 (20241206.2353)
 -->
<!-- Pages: 1 -->
<svg width="1376pt" height="696pt"
 viewBox="0.00 0.00 1375.62 695.58" xmlns="http://www.w3.org/2000/svg" xmlns:xlink="http://www.w3.org/1999/xlink">
<g id="graph0" class="graph" transform="scale(1 1) rotate(0) translate(4 691.58)">
<polygon fill="white" stroke="none" points="-4,4 -4,-691.58 1371.62,-691.58 1371.62,4 -4,4"/>
<!-- &#45;1 -->
<g id="node1" class="node">
<title>&#45;1</title>
<polygon fill="lightgray" stroke="black" points="651.15,-669.6 627.65,-669.6 627.65,-651.1 651.15,-651.1 651.15,-669.6"/>
<text text-anchor="middle" x="639.4" y="-657.05" font-family="Times,serif" font-size="9.00">&#45;1</text>
</g>
<!-- 0 -->
<g id="node5" class="node">
<title>0</title>
<ellipse fill="lightblue" stroke="black" cx="444.4" cy="-569.91" rx="14.5" ry="14.5"/>
<text text-anchor="middle" x="444.4" y="-566.61" font-family="Times,serif" font-size="9.00">0</text>
</g>
<!-- &#45;1&#45;&gt;0 -->
<g id="edge1" class="edge">
<title>&#45;1&#45;&gt;0</title>
<path fill="none" stroke="red" stroke-width="3.57" d="M627.2,-653.82C596.31,-639.81 514.4,-602.66 471.49,-583.19"/>
<polygon fill="red" stroke="red" stroke-width="3.57" points="473.08,-580.07 462.53,-579.13 470.19,-586.45 473.08,-580.07"/>
</g>
<!-- 63711 -->
<g id="node28" class="node">
<title>63711</title>
<ellipse fill="white" stroke="black" cx="608.4" cy="-298.57" rx="27.22" ry="27.22"/>
<text text-anchor="middle" x="608.4" y="-295.27" font-family="Times,serif" font-size="9.00">63711</text>
</g>
<!-- &#45;1&#45;&gt;63711 -->
<g id="edge31" class="edge">
<title>&#45;1&#45;&gt;63711</title>
<path fill="none" stroke="green" stroke-width="0.29" stroke-dasharray="1,5" d="M641.01,-650.94C643.2,-639.02 647,-616.51 648.4,-597.13 655.23,-502.13 631.93,-391.15 618.03,-335.4"/>
<polygon fill="green" stroke="green" stroke-width="0.29" points="621.44,-334.58 615.58,-325.75 614.65,-336.3 621.44,-334.58"/>
</g>
<!-- 62943 -->
<g id="node29" class="node">
<title>62943</title>
<ellipse fill="white" stroke="black" cx="955.4" cy="-208.12" rx="27.22" ry="27.22"/>
<text text-anchor="middle" x="955.4" y="-204.82" font-family="Times,serif" font-size="9.00">62943</text>
</g>
<!-- &#45;1&#45;&gt;62943 -->
<g id="edge22" class="edge">
<title>&#45;1&#45;&gt;62943</title>
<path fill="none" stroke="red" stroke-width="0.25" d="M651.31,-657.83C727.33,-647.76 1141.4,-588.02 1141.4,-480.46 1141.4,-480.46 1141.4,-480.46 1141.4,-388.01 1141.4,-304.75 1043.38,-248.1 989.65,-223.3"/>
<polygon fill="red" stroke="red" stroke-width="0.25" points="991.38,-220.24 980.83,-219.34 988.51,-226.63 991.38,-220.24"/>
</g>
<!-- 69361 -->
<g id="node35" class="node">
<title>69361</title>
<ellipse fill="white" stroke="black" cx="612.4" cy="-569.91" rx="27.22" ry="27.22"/>
<text text-anchor="middle" x="612.4" y="-566.61" font-family="Times,serif" font-size="9.00">69361</text>
</g>
<!-- &#45;1&#45;&gt;69361 -->
<g id="edge37" class="edge">
<title>&#45;1&#45;&gt;69361</title>
<path fill="none" stroke="green" stroke-width="0.12" d="M636.81,-650.87C633.63,-640.46 628.04,-622.16 623.02,-605.69"/>
<polygon fill="green" stroke="green" stroke-width="0.12" points="626.46,-605 620.2,-596.45 619.77,-607.04 626.46,-605"/>
</g>
<!-- &#45;2 -->
<g id="node2" class="node">
<title>&#45;2</title>
<polygon fill="lightgray" stroke="black" points="912.15,-398.26 888.65,-398.26 888.65,-379.76 912.15,-379.76 912.15,-398.26"/>
<text text-anchor="middle" x="900.4" y="-385.71" font-family="Times,serif" font-size="9.00">&#45;2</text>
</g>
<!-- 1 -->
<g id="node6" class="node">
<title>1</title>
<ellipse fill="lightblue" stroke="black" cx="291.4" cy="-117.67" rx="14.5" ry="14.5"/>
<text text-anchor="middle" x="291.4" y="-114.37" font-family="Times,serif" font-size="9.00">1</text>
</g>
<!-- &#45;2&#45;&gt;1 -->
<g id="edge2" class="edge">
<title>&#45;2&#45;&gt;1</title>
<path fill="none" stroke="red" stroke-width="4.23" d="M888.33,-387.36C853.27,-384.91 749.68,-373.8 682.4,-325.79 658.38,-308.65 666.36,-291.05 644.4,-271.34 582.16,-215.48 556.08,-214.27 479.4,-180.89 424.97,-157.2 358.44,-137.17 320.89,-126.63"/>
<polygon fill="red" stroke="red" stroke-width="4.23" points="321.9,-123.07 311.27,-123.98 319.93,-130.2 321.9,-123.07"/>
</g>
<!-- 54016 -->
<g id="node8" class="node">
<title>54016</title>
<ellipse fill="white" stroke="black" cx="828.4" cy="-298.57" rx="27.22" ry="27.22"/>
<text text-anchor="middle" x="828.4" y="-295.27" font-family="Times,serif" font-size="9.00">54016</text>
</g>
<!-- &#45;2&#45;&gt;54016 -->
<g id="edge13" class="edge">
<title>&#45;2&#45;&gt;54016</title>
<path fill="none" stroke="red" stroke-width="0.47" stroke-dasharray="1,5" d="M893.49,-379.53C883.91,-367.76 866.11,-345.89 851.54,-327.99"/>
<polygon fill="red" stroke="red" stroke-width="0.47" points="854.59,-326.2 845.57,-320.66 849.16,-330.62 854.59,-326.2"/>
</g>
<!-- 44201 -->
<g id="node17" class="node">
<title>44201</title>
<ellipse fill="white" stroke="black" cx="900.4" cy="-298.57" rx="27.22" ry="27.22"/>
<text text-anchor="middle" x="900.4" y="-295.27" font-family="Times,serif" font-size="9.00">44201</text>
</g>
<!-- &#45;2&#45;&gt;44201 -->
<g id="edge6" class="edge">
<title>&#45;2&#45;&gt;44201</title>
<path fill="none" stroke="red" stroke-width="0.74" stroke-dasharray="1,5" d="M900.4,-379.53C900.4,-369.72 900.4,-352.9 900.4,-337.21"/>
<polygon fill="red" stroke="red" stroke-width="0.74" points="903.9,-337.21 900.4,-327.21 896.9,-337.21 903.9,-337.21"/>
</g>
<!-- 71215 -->
<g id="node18" class="node">
<title>71215</title>
<ellipse fill="white" stroke="black" cx="1010.4" cy="-298.57" rx="27.22" ry="27.22"/>
<text text-anchor="middle" x="1010.4" y="-295.27" font-family="Times,serif" font-size="9.00">71215</text>
</g>
<!-- &#45;2&#45;&gt;71215 -->
<g id="edge48" class="edge">
<title>&#45;2&#45;&gt;71215</title>
<path fill="none" stroke="green" stroke-width="1.16" d="M910.94,-379.53C926.82,-366.76 957.47,-342.12 980.57,-323.55"/>
<polygon fill="green" stroke="green" stroke-width="1.16" points="982.66,-326.36 988.26,-317.37 978.27,-320.9 982.66,-326.36"/>
</g>
<!-- 48054 -->
<g id="node21" class="node">
<title>48054</title>
<ellipse fill="white" stroke="black" cx="1048.4" cy="-27.22" rx="27.22" ry="27.22"/>
<text text-anchor="middle" x="1048.4" y="-23.92" font-family="Times,serif" font-size="9.00">48054</text>
</g>
<!-- &#45;2&#45;&gt;48054 -->
<g id="edge17" class="edge">
<title>&#45;2&#45;&gt;48054</title>
<path fill="none" stroke="green" stroke-width="1.94" d="M912.58,-387.61C944.12,-385.84 1028.63,-376.38 1067.4,-325.79 1131.19,-242.55 1111.58,-191.73 1084.4,-90.45 1081.59,-79.99 1076.55,-69.48 1071.12,-60.15"/>
<polygon fill="green" stroke="green" stroke-width="1.94" points="1074.25,-58.55 1065.98,-51.93 1068.31,-62.26 1074.25,-58.55"/>
</g>
<!-- 70100 -->
<g id="node27" class="node">
<title>70100</title>
<ellipse fill="white" stroke="black" cx="718.4" cy="-298.57" rx="27.22" ry="27.22"/>
<text text-anchor="middle" x="718.4" y="-295.27" font-family="Times,serif" font-size="9.00">70100</text>
</g>
<!-- &#45;2&#45;&gt;70100 -->
<g id="edge40" class="edge">
<title>&#45;2&#45;&gt;70100</title>
<path fill="none" stroke="green" stroke-width="0.75" stroke-dasharray="1,5" d="M888.41,-383.45C863.71,-373.88 805.61,-350.58 759.4,-325.79 756.27,-324.11 753.06,-322.28 749.89,-320.39"/>
<polygon fill="green" stroke="green" stroke-width="0.75" points="751.89,-317.51 741.54,-315.22 748.21,-323.46 751.89,-317.51"/>
</g>
<!-- &#45;2&#45;&gt;62943 -->
<g id="edge46" class="edge">
<title>&#45;2&#45;&gt;62943</title>
<path fill="none" stroke="green" stroke-width="0.32" stroke-dasharray="1,5" d="M906.58,-379.64C914.76,-368.13 929.01,-346.48 936.4,-325.79 945.61,-299.98 950.38,-269.35 952.84,-245.95"/>
<polygon fill="green" stroke="green" stroke-width="0.32" points="956.3,-246.52 953.77,-236.24 949.33,-245.86 956.3,-246.52"/>
</g>
<!-- 52074 -->
<g id="node32" class="node">
<title>52074</title>
<ellipse fill="white" stroke="black" cx="976.4" cy="-117.67" rx="27.22" ry="27.22"/>
<text text-anchor="middle" x="976.4" y="-114.37" font-family="Times,serif" font-size="9.00">52074</text>
</g>
<!-- &#45;2&#45;&gt;52074 -->
<g id="edge23" class="edge">
<title>&#45;2&#45;&gt;52074</title>
<path fill="none" stroke="red" stroke-width="0.11" stroke-dasharray="1,5" d="M912.61,-387.12C941.82,-384.24 1015.56,-372.45 1046.4,-325.79 1084.36,-268.34 1033.37,-188.31 1000.43,-146.55"/>
<polygon fill="red" stroke="red" stroke-width="0.11" points="1003.22,-144.43 994.22,-138.85 997.78,-148.83 1003.22,-144.43"/>
</g>
<!-- 67574 -->
<g id="node36" class="node">
<title>67574</title>
<ellipse fill="white" stroke="black" cx="792.4" cy="-208.12" rx="27.22" ry="27.22"/>
<text text-anchor="middle" x="792.4" y="-204.82" font-family="Times,serif" font-size="9.00">67574</text>
</g>
<!-- &#45;2&#45;&gt;67574 -->
<g id="edge30" class="edge">
<title>&#45;2&#45;&gt;67574</title>
<path fill="none" stroke="green" stroke-width="0.27" stroke-dasharray="1,5" d="M888.16,-385.23C864.59,-379.13 813.4,-362.14 792.4,-325.79 778.3,-301.39 779.52,-269.05 783.58,-244.61"/>
<polygon fill="green" stroke="green" stroke-width="0.27" points="786.96,-245.55 785.38,-235.07 780.09,-244.25 786.96,-245.55"/>
</g>
<!-- &#45;3 -->
<g id="node3" class="node">
<title>&#45;3</title>
<polygon fill="lightgray" stroke="black" points="379.15,-669.6 355.65,-669.6 355.65,-651.1 379.15,-651.1 379.15,-669.6"/>
<text text-anchor="middle" x="367.4" y="-657.05" font-family="Times,serif" font-size="9.00">&#45;3</text>
</g>
<!-- &#45;3&#45;&gt;0 -->
<g id="edge7" class="edge">
<title>&#45;3&#45;&gt;0</title>
<path fill="none" stroke="red" stroke-width="0.25" stroke-dasharray="1,5" d="M374.78,-650.87C387.11,-636.71 412.15,-607.94 428.6,-589.05"/>
<polygon fill="red" stroke="red" stroke-width="0.25" points="431.09,-591.52 435.02,-581.68 425.81,-586.92 431.09,-591.52"/>
</g>
<!-- &#45;3&#45;&gt;1 -->
<g id="edge8" class="edge">
<title>&#45;3&#45;&gt;1</title>
<path fill="none" stroke="green" stroke-width="0.25" stroke-dasharray="1,5" d="M366.2,-650.86C357.86,-591.48 308.17,-238.01 294.74,-142.46"/>
<polygon fill="green" stroke="green" stroke-width="0.25" points="298.23,-142.16 293.37,-132.74 291.3,-143.13 298.23,-142.16"/>
</g>
<!-- 2 -->
<g id="node7" class="node">
<title>2</title>
<ellipse fill="lightblue" stroke="black" cx="133.4" cy="-479.46" rx="14.5" ry="14.5"/>
<text text-anchor="middle" x="133.4" y="-476.16" font-family="Times,serif" font-size="9.00">2</text>
</g>
<!-- &#45;3&#45;&gt;2 -->
<g id="edge3" class="edge">
<title>&#45;3&#45;&gt;2</title>
<path fill="none" stroke="red" stroke-width="4.78" d="M355.22,-659.62C319.56,-659.69 214.42,-654.76 160.4,-597.13 138.56,-573.84 133.21,-536.51 132.42,-510.36"/>
<polygon fill="red" stroke="red" stroke-width="4.78" points="136.6,-510.56 132.44,-500.56 128.23,-510.55 136.6,-510.56"/>
</g>
<!-- 49986 -->
<g id="node23" class="node">
<title>49986</title>
<ellipse fill="white" stroke="black" cx="443.4" cy="-208.12" rx="27.22" ry="27.22"/>
<text text-anchor="middle" x="443.4" y="-204.82" font-family="Times,serif" font-size="9.00">49986</text>
</g>
<!-- &#45;3&#45;&gt;49986 -->
<g id="edge14" class="edge">
<title>&#45;3&#45;&gt;49986</title>
<path fill="none" stroke="green" stroke-width="0.18" stroke-dasharray="1,5" d="M367.4,-650.79C367.4,-625.03 367.4,-545.99 367.4,-480.46 367.4,-480.46 367.4,-480.46 367.4,-388.01 367.4,-331.86 399.51,-273.13 421.98,-238.89"/>
<polygon fill="green" stroke="green" stroke-width="0.18" points="424.64,-241.2 427.32,-230.95 418.83,-237.3 424.64,-241.2"/>
</g>
<!-- 73454 -->
<g id="node34" class="node">
<title>73454</title>
<ellipse fill="white" stroke="black" cx="574.4" cy="-479.46" rx="27.22" ry="27.22"/>
<text text-anchor="middle" x="574.4" y="-476.16" font-family="Times,serif" font-size="9.00">73454</text>
</g>
<!-- &#45;3&#45;&gt;73454 -->
<g id="edge59" class="edge">
<title>&#45;3&#45;&gt;73454</title>
<path fill="none" stroke="green" stroke-width="0.37" d="M379.49,-653.22C399.03,-643.02 438.28,-621.29 467.4,-597.13 499.51,-570.48 531.17,-534.4 551.62,-509.45"/>
<polygon fill="green" stroke="green" stroke-width="0.37" points="554.18,-511.86 557.76,-501.88 548.74,-507.45 554.18,-511.86"/>
</g>
<!-- &#45;4 -->
<g id="node4" class="node">
<title>&#45;4</title>
<polygon fill="lightgray" stroke="black" points="193.15,-579.16 169.65,-579.16 169.65,-560.66 193.15,-560.66 193.15,-579.16"/>
<text text-anchor="middle" x="181.4" y="-566.61" font-family="Times,serif" font-size="9.00">&#45;4</text>
</g>
<!-- &#45;4&#45;&gt;1 -->
<g id="edge4" class="edge">
<title>&#45;4&#45;&gt;1</title>
<path fill="none" stroke="green" stroke-width="2.31" d="M181.4,-560.34C181.4,-534.58 181.4,-455.55 181.4,-390.01 181.4,-390.01 181.4,-390.01 181.4,-297.57 181.4,-245.03 172.21,-225.23 200.4,-180.89 215.88,-156.53 244.71,-139.28 265.78,-129.21"/>
<polygon fill="green" stroke="green" stroke-width="2.31" points="267.1,-132.46 274.81,-125.18 264.25,-126.06 267.1,-132.46"/>
</g>
<!-- &#45;4&#45;&gt;2 -->
<g id="edge5" class="edge">
<title>&#45;4&#45;&gt;2</title>
<path fill="none" stroke="red" stroke-width="2.39" d="M176.79,-560.43C169.89,-547.7 156.58,-523.18 146.51,-504.63"/>
<polygon fill="red" stroke="red" stroke-width="2.39" points="149.61,-503 141.77,-495.88 143.46,-506.34 149.61,-503"/>
</g>
<!-- &#45;4&#45;&gt;49986 -->
<g id="edge9" class="edge">
<title>&#45;4&#45;&gt;49986</title>
<path fill="none" stroke="red" stroke-width="0.24" stroke-dasharray="1,5" d="M184.74,-560.22C199.62,-522.35 263.18,-369.16 353.4,-271.34 369.81,-253.54 392.19,-238.04 410.53,-226.96"/>
<polygon fill="red" stroke="red" stroke-width="0.24" points="412.27,-230 419.12,-221.92 408.73,-223.96 412.27,-230"/>
</g>
<!-- 0&#45;&gt;49986 -->
<g id="edge12" class="edge">
<title>0&#45;&gt;49986</title>
<path fill="none" stroke="red" stroke-width="0.37" d="M444.13,-555.07C443.9,-542.46 443.58,-523.32 443.4,-506.68 442.27,-402.09 441.56,-375.94 442.4,-271.34 442.46,-263.23 442.57,-254.52 442.7,-246.27"/>
<polygon fill="red" stroke="red" stroke-width="0.37" points="446.2,-246.38 442.87,-236.33 439.2,-246.27 446.2,-246.38"/>
</g>
<!-- 60365 -->
<g id="node26" class="node">
<title>60365</title>
<ellipse fill="white" stroke="black" cx="479.4" cy="-479.46" rx="27.22" ry="27.22"/>
<text text-anchor="middle" x="479.4" y="-476.16" font-family="Times,serif" font-size="9.00">60365</text>
</g>
<!-- 0&#45;&gt;60365 -->
<g id="edge18" class="edge">
<title>0&#45;&gt;60365</title>
<path fill="none" stroke="green" stroke-width="0.4" d="M449.56,-555.86C453.83,-545.08 460.08,-529.28 465.76,-514.92"/>
<polygon fill="green" stroke="green" stroke-width="0.4" points="468.92,-516.44 469.35,-505.86 462.41,-513.87 468.92,-516.44"/>
</g>
<!-- 51642 -->
<g id="node22" class="node">
<title>51642</title>
<ellipse fill="white" stroke="black" cx="469.4" cy="-27.22" rx="27.22" ry="27.22"/>
<text text-anchor="middle" x="469.4" y="-23.92" font-family="Times,serif" font-size="9.00">51642</text>
</g>
<!-- 1&#45;&gt;51642 -->
<g id="edge10" class="edge">
<title>1&#45;&gt;51642</title>
<path fill="none" stroke="green" stroke-width="0.2" stroke-dasharray="1,5" d="M304.2,-110.31C331.5,-96.74 396.21,-64.59 436.06,-44.79"/>
<polygon fill="green" stroke="green" stroke-width="0.2" points="437.46,-48 444.85,-40.42 434.34,-41.73 437.46,-48"/>
</g>
<!-- 70169 -->
<g id="node13" class="node">
<title>70169</title>
<ellipse fill="white" stroke="black" cx="52.4" cy="-389.01" rx="27.22" ry="27.22"/>
<text text-anchor="middle" x="52.4" y="-385.71" font-family="Times,serif" font-size="9.00">70169</text>
</g>
<!-- 2&#45;&gt;70169 -->
<g id="edge42" class="edge">
<title>2&#45;&gt;70169</title>
<path fill="none" stroke="green" stroke-width="0.16" d="M123.79,-467.97C112.45,-455.59 93.16,-434.52 77.49,-417.41"/>
<polygon fill="green" stroke="green" stroke-width="0.16" points="80.08,-415.06 70.75,-410.05 74.92,-419.79 80.08,-415.06"/>
</g>
<!-- 65703 -->
<g id="node16" class="node">
<title>65703</title>
<ellipse fill="white" stroke="black" cx="126.4" cy="-389.01" rx="27.22" ry="27.22"/>
<text text-anchor="middle" x="126.4" y="-385.71" font-family="Times,serif" font-size="9.00">65703</text>
</g>
<!-- 2&#45;&gt;65703 -->
<g id="edge26" class="edge">
<title>2&#45;&gt;65703</title>
<path fill="none" stroke="red" stroke-width="0.38" d="M132.3,-464.64C131.5,-454.52 130.38,-440.28 129.32,-426.95"/>
<polygon fill="red" stroke="red" stroke-width="0.38" points="132.82,-426.81 128.54,-417.12 125.84,-427.37 132.82,-426.81"/>
</g>
<!-- 57444 -->
<g id="node31" class="node">
<title>57444</title>
<ellipse fill="white" stroke="black" cx="107.4" cy="-208.12" rx="27.22" ry="27.22"/>
<text text-anchor="middle" x="107.4" y="-204.82" font-family="Times,serif" font-size="9.00">57444</text>
</g>
<!-- 2&#45;&gt;57444 -->
<g id="edge20" class="edge">
<title>2&#45;&gt;57444</title>
<path fill="none" stroke="green" stroke-width="0.55" d="M118.98,-475.75C93.02,-470 39.03,-453.9 16.4,-416.24 -17.22,-360.28 6.79,-327.3 40.4,-271.34 49.72,-255.82 64.03,-241.79 77.03,-230.99"/>
<polygon fill="green" stroke="green" stroke-width="0.55" points="79.03,-233.87 84.67,-224.9 74.67,-228.39 79.03,-233.87"/>
</g>
<!-- 68983 -->
<g id="node37" class="node">
<title>68983</title>
<ellipse fill="white" stroke="black" cx="236.4" cy="-298.57" rx="27.22" ry="27.22"/>
<text text-anchor="middle" x="236.4" y="-295.27" font-family="Times,serif" font-size="9.00">68983</text>
</g>
<!-- 2&#45;&gt;68983 -->
<g id="edge36" class="edge">
<title>2&#45;&gt;68983</title>
<path fill="none" stroke="red" stroke-width="0.45" d="M140.31,-466.44C155.97,-439.25 194.57,-372.21 217.8,-331.86"/>
<polygon fill="red" stroke="red" stroke-width="0.45" points="220.78,-333.71 222.73,-323.3 214.71,-330.22 220.78,-333.71"/>
</g>
<!-- 54016&#45;&gt;62943 -->
<g id="edge25" class="edge">
<title>54016&#45;&gt;62943</title>
<path fill="none" stroke="red" stroke-width="0.21" stroke-dasharray="1,5" d="M850.02,-281.65C854.74,-278.22 859.72,-274.64 864.4,-271.34 884.42,-257.21 907.18,-241.65 924.93,-229.62"/>
<polygon fill="red" stroke="red" stroke-width="0.21" points="926.62,-232.7 932.94,-224.2 922.7,-226.9 926.62,-232.7"/>
</g>
<!-- 54016&#45;&gt;57444 -->
<g id="edge21" class="edge">
<title>54016&#45;&gt;57444</title>
<path fill="none" stroke="red" stroke-width="0.2" d="M803.54,-286.82C789.41,-281.21 771.22,-274.8 754.4,-271.34 512.71,-221.66 443.59,-277.05 200.4,-235.34 181.05,-232.02 159.95,-226.26 142.75,-220.98"/>
<polygon fill="red" stroke="red" stroke-width="0.2" points="144,-217.7 133.41,-218.04 141.9,-224.38 144,-217.7"/>
</g>
<!-- 66938 -->
<g id="node38" class="node">
<title>66938</title>
<ellipse fill="white" stroke="black" cx="864.4" cy="-208.12" rx="27.22" ry="27.22"/>
<text text-anchor="middle" x="864.4" y="-204.82" font-family="Times,serif" font-size="9.00">66938</text>
</g>
<!-- 54016&#45;&gt;66938 -->
<g id="edge39" class="edge">
<title>54016&#45;&gt;66938</title>
<path fill="none" stroke="green" stroke-width="0.14" d="M838.42,-272.93C842.18,-263.71 846.51,-253.07 850.55,-243.15"/>
<polygon fill="green" stroke="green" stroke-width="0.14" points="853.69,-244.71 854.22,-234.12 847.21,-242.07 853.69,-244.71"/>
</g>
<!-- 70404 -->
<g id="node9" class="node">
<title>70404</title>
<ellipse fill="white" stroke="black" cx="1196.4" cy="-569.91" rx="27.22" ry="27.22"/>
<text text-anchor="middle" x="1196.4" y="-566.61" font-family="Times,serif" font-size="9.00">70404</text>
</g>
<!-- 71052 -->
<g id="node10" class="node">
<title>71052</title>
<ellipse fill="white" stroke="black" cx="236.4" cy="-208.12" rx="27.22" ry="27.22"/>
<text text-anchor="middle" x="236.4" y="-204.82" font-family="Times,serif" font-size="9.00">71052</text>
</g>
<!-- 59026 -->
<g id="node11" class="node">
<title>59026</title>
<ellipse fill="white" stroke="black" cx="720.4" cy="-208.12" rx="27.22" ry="27.22"/>
<text text-anchor="middle" x="720.4" y="-204.82" font-family="Times,serif" font-size="9.00">59026</text>
</g>
<!-- 59026&#45;&gt;52074 -->
<g id="edge16" class="edge">
<title>59026&#45;&gt;52074</title>
<path fill="none" stroke="green" stroke-width="0.25" stroke-dasharray="1,5" d="M741.31,-190C746.07,-186.64 751.25,-183.4 756.4,-180.89 817.2,-151.33 894.5,-133.56 939.41,-124.98"/>
<polygon fill="green" stroke="green" stroke-width="0.25" points="940,-128.43 949.19,-123.16 938.72,-121.55 940,-128.43"/>
</g>
<!-- 68245 -->
<g id="node12" class="node">
<title>68245</title>
<ellipse fill="white" stroke="black" cx="1268.4" cy="-660.35" rx="27.22" ry="27.22"/>
<text text-anchor="middle" x="1268.4" y="-657.05" font-family="Times,serif" font-size="9.00">68245</text>
</g>
<!-- 70169&#45;&gt;57444 -->
<g id="edge43" class="edge">
<title>70169&#45;&gt;57444</title>
<path fill="none" stroke="green" stroke-width="0.37" d="M47.28,-362.04C43.66,-337.75 41.21,-300.89 52.4,-271.34 57.86,-256.91 68.37,-243.67 78.75,-233.15"/>
<polygon fill="green" stroke="green" stroke-width="0.37" points="81.01,-235.83 85.8,-226.38 76.17,-230.78 81.01,-235.83"/>
</g>
<!-- 71837 -->
<g id="node14" class="node">
<title>71837</title>
<ellipse fill="white" stroke="black" cx="107.4" cy="-117.67" rx="27.22" ry="27.22"/>
<text text-anchor="middle" x="107.4" y="-114.37" font-family="Times,serif" font-size="9.00">71837</text>
</g>
<!-- 72627 -->
<g id="node20" class="node">
<title>72627</title>
<ellipse fill="white" stroke="black" cx="107.4" cy="-27.22" rx="27.22" ry="27.22"/>
<text text-anchor="middle" x="107.4" y="-23.92" font-family="Times,serif" font-size="9.00">72627</text>
</g>
<!-- 71837&#45;&gt;72627 -->
<g id="edge53" class="edge">
<title>71837&#45;&gt;72627</title>
<path fill="none" stroke="green" stroke-width="0.36" d="M107.4,-90.13C107.4,-82.26 107.4,-73.5 107.4,-65.09"/>
<polygon fill="green" stroke="green" stroke-width="0.36" points="110.9,-65.28 107.4,-55.28 103.9,-65.28 110.9,-65.28"/>
</g>
<!-- 69406 -->
<g id="node15" class="node">
<title>69406</title>
<ellipse fill="white" stroke="black" cx="1196.4" cy="-660.35" rx="27.22" ry="27.22"/>
<text text-anchor="middle" x="1196.4" y="-657.05" font-family="Times,serif" font-size="9.00">69406</text>
</g>
<!-- 69406&#45;&gt;70404 -->
<g id="edge45" class="edge">
<title>69406&#45;&gt;70404</title>
<path fill="none" stroke="green" stroke-width="0.46" d="M1196.4,-632.82C1196.4,-625.03 1196.4,-616.37 1196.4,-608.06"/>
<polygon fill="green" stroke="green" stroke-width="0.46" points="1199.9,-608.12 1196.4,-598.12 1192.9,-608.12 1199.9,-608.12"/>
</g>
<!-- 73905 -->
<g id="node19" class="node">
<title>73905</title>
<ellipse fill="white" stroke="black" cx="88.4" cy="-298.57" rx="27.22" ry="27.22"/>
<text text-anchor="middle" x="88.4" y="-295.27" font-family="Times,serif" font-size="9.00">73905</text>
</g>
<!-- 65703&#45;&gt;73905 -->
<g id="edge57" class="edge">
<title>65703&#45;&gt;73905</title>
<path fill="none" stroke="green" stroke-width="0.27" d="M116.01,-363.84C111.98,-354.46 107.3,-343.56 102.94,-333.42"/>
<polygon fill="green" stroke="green" stroke-width="0.27" points="106.22,-332.19 99.06,-324.38 99.79,-334.95 106.22,-332.19"/>
</g>
<!-- 65703&#45;&gt;57444 -->
<g id="edge27" class="edge">
<title>65703&#45;&gt;57444</title>
<path fill="none" stroke="green" stroke-width="0.15" stroke-dasharray="1,5" d="M127.82,-361.45C128.64,-337.71 128.78,-302.03 124.4,-271.34 123.11,-262.32 120.92,-252.75 118.54,-243.88"/>
<polygon fill="green" stroke="green" stroke-width="0.15" points="121.96,-243.13 115.86,-234.47 115.23,-245.04 121.96,-243.13"/>
</g>
<!-- 71215&#45;&gt;62943 -->
<g id="edge49" class="edge">
<title>71215&#45;&gt;62943</title>
<path fill="none" stroke="green" stroke-width="0.28" d="M996.23,-274.79C989.75,-264.37 981.97,-251.85 974.95,-240.55"/>
<polygon fill="green" stroke="green" stroke-width="0.28" points="977.99,-238.82 969.74,-232.18 972.05,-242.52 977.99,-238.82"/>
</g>
<!-- 73905&#45;&gt;57444 -->
<g id="edge58" class="edge">
<title>73905&#45;&gt;57444</title>
<path fill="none" stroke="red" stroke-width="0.16" d="M93.99,-271.51C95.79,-263.14 97.82,-253.72 99.73,-244.79"/>
<polygon fill="red" stroke="red" stroke-width="0.16" points="103.11,-245.74 101.79,-235.23 96.26,-244.27 103.11,-245.74"/>
</g>
<!-- 68802 -->
<g id="node24" class="node">
<title>68802</title>
<ellipse fill="white" stroke="black" cx="536.4" cy="-298.57" rx="27.22" ry="27.22"/>
<text text-anchor="middle" x="536.4" y="-295.27" font-family="Times,serif" font-size="9.00">68802</text>
</g>
<!-- 68802&#45;&gt;49986 -->
<g id="edge33" class="edge">
<title>68802&#45;&gt;49986</title>
<path fill="none" stroke="red" stroke-width="0.23" stroke-dasharray="1,5" d="M517.13,-279.24C503.63,-266.4 485.4,-249.06 470.44,-234.84"/>
<polygon fill="red" stroke="red" stroke-width="0.23" points="472.87,-232.32 463.21,-227.96 468.05,-237.39 472.87,-232.32"/>
</g>
<!-- 68802&#45;&gt;62943 -->
<g id="edge35" class="edge">
<title>68802&#45;&gt;62943</title>
<path fill="none" stroke="green" stroke-width="0.28" stroke-dasharray="1,5" d="M556.63,-280.05C561.52,-276.64 566.92,-273.46 572.4,-271.34 709.16,-218.39 759.34,-275.46 900.4,-235.34 907.81,-233.23 915.46,-230.2 922.61,-226.94"/>
<polygon fill="green" stroke="green" stroke-width="0.28" points="924.11,-230.1 931.6,-222.6 921.07,-223.8 924.11,-230.1"/>
</g>
<!-- 59846 -->
<g id="node25" class="node">
<title>59846</title>
<ellipse fill="white" stroke="black" cx="1340.4" cy="-660.35" rx="27.22" ry="27.22"/>
<text text-anchor="middle" x="1340.4" y="-657.05" font-family="Times,serif" font-size="9.00">59846</text>
</g>
<!-- 60365&#45;&gt;49986 -->
<g id="edge19" class="edge">
<title>60365&#45;&gt;49986</title>
<path fill="none" stroke="red" stroke-width="0.41" stroke-dasharray="1,5" d="M471.34,-452.96C468.1,-441.79 464.61,-428.47 462.4,-416.24 451.74,-357.36 446.92,-287.93 444.84,-246.28"/>
<polygon fill="red" stroke="red" stroke-width="0.41" points="448.35,-246.25 444.38,-236.43 441.35,-246.58 448.35,-246.25"/>
</g>
<!-- 60365&#45;&gt;68802 -->
<g id="edge32" class="edge">
<title>60365&#45;&gt;68802</title>
<path fill="none" stroke="red" stroke-width="0.39" d="M500.48,-461.55C512.88,-450.21 527.45,-434.11 534.4,-416.24 544.32,-390.69 544.31,-359.56 542.1,-335.89"/>
<polygon fill="red" stroke="red" stroke-width="0.39" points="545.61,-335.72 541.02,-326.17 538.65,-336.49 545.61,-335.72"/>
</g>
<!-- 66785 -->
<g id="node30" class="node">
<title>66785</title>
<ellipse fill="white" stroke="black" cx="498.4" cy="-389.01" rx="27.22" ry="27.22"/>
<text text-anchor="middle" x="498.4" y="-385.71" font-family="Times,serif" font-size="9.00">66785</text>
</g>
<!-- 60365&#45;&gt;66785 -->
<g id="edge28" class="edge">
<title>60365&#45;&gt;66785</title>
<path fill="none" stroke="green" stroke-width="0.25" d="M484.99,-452.4C486.77,-444.12 488.77,-434.82 490.67,-425.97"/>
<polygon fill="green" stroke="green" stroke-width="0.25" points="494.08,-426.77 492.76,-416.25 487.24,-425.3 494.08,-426.77"/>
</g>
<!-- 70100&#45;&gt;51642 -->
<g id="edge54" class="edge">
<title>70100&#45;&gt;51642</title>
<path fill="none" stroke="green" stroke-width="0.25" d="M705.55,-274.4C691.44,-249.91 667.31,-210.79 641.4,-180.89 596.73,-129.36 535.1,-78.63 499.02,-50.57"/>
<polygon fill="green" stroke="green" stroke-width="0.25" points="501.22,-47.84 491.16,-44.5 496.94,-53.39 501.22,-47.84"/>
</g>
<!-- 70100&#45;&gt;67574 -->
<g id="edge41" class="edge">
<title>70100&#45;&gt;67574</title>
<path fill="none" stroke="red" stroke-width="0.28" stroke-dasharray="1,5" d="M735.56,-277.05C745.46,-265.22 758.05,-250.17 768.86,-237.25"/>
<polygon fill="red" stroke="red" stroke-width="0.28" points="771.32,-239.76 775.05,-229.85 765.95,-235.27 771.32,-239.76"/>
</g>
<!-- 63711&#45;&gt;59026 -->
<g id="edge44" class="edge">
<title>63711&#45;&gt;59026</title>
<path fill="none" stroke="red" stroke-width="0.76" d="M629.46,-280.93C646.75,-267.28 671.43,-247.79 690.72,-232.56"/>
<polygon fill="red" stroke="red" stroke-width="0.76" points="692.85,-235.33 698.53,-226.39 688.51,-229.84 692.85,-235.33"/>
</g>
<!-- 63711&#45;&gt;49986 -->
<g id="edge24" class="edge">
<title>63711&#45;&gt;49986</title>
<path fill="none" stroke="red" stroke-width="0.37" d="M587.13,-281.11C582.39,-277.71 577.31,-274.28 572.4,-271.34 541.56,-252.88 504.43,-235.43 477.93,-223.73"/>
<polygon fill="red" stroke="red" stroke-width="0.37" points="479.41,-220.56 468.85,-219.77 476.61,-226.98 479.41,-220.56"/>
</g>
<!-- 66785&#45;&gt;49986 -->
<g id="edge29" class="edge">
<title>66785&#45;&gt;49986</title>
<path fill="none" stroke="red" stroke-width="0.29" d="M490.63,-362.76C481.12,-331.82 464.95,-279.21 454.22,-244.31"/>
<polygon fill="red" stroke="red" stroke-width="0.29" points="457.62,-243.48 451.34,-234.95 450.93,-245.54 457.62,-243.48"/>
</g>
<!-- 66785&#45;&gt;63711 -->
<g id="edge34" class="edge">
<title>66785&#45;&gt;63711</title>
<path fill="none" stroke="red" stroke-width="0.2" d="M519.35,-371.17C536.4,-357.46 560.64,-337.96 579.53,-322.77"/>
<polygon fill="red" stroke="red" stroke-width="0.2" points="581.69,-325.53 587.29,-316.54 577.3,-320.07 581.69,-325.53"/>
</g>
<!-- 66785&#45;&gt;68983 -->
<g id="edge50" class="edge">
<title>66785&#45;&gt;68983</title>
<path fill="none" stroke="red" stroke-width="0.15" d="M472.8,-379.37C425.64,-363.45 325.01,-329.48 271.52,-311.42"/>
<polygon fill="red" stroke="red" stroke-width="0.15" points="272.91,-308.2 262.31,-308.31 270.67,-314.83 272.91,-308.2"/>
</g>
<!-- 57444&#45;&gt;1 -->
<g id="edge15" class="edge">
<title>57444&#45;&gt;1</title>
<path fill="none" stroke="red" stroke-width="0.58" stroke-dasharray="1,5" d="M131.83,-195.37C167.62,-178.17 233.82,-146.35 268.64,-129.61"/>
<polygon fill="red" stroke="red" stroke-width="0.58" points="270.08,-132.8 277.58,-125.31 267.05,-126.49 270.08,-132.8"/>
</g>
<!-- 57444&#45;&gt;71837 -->
<g id="edge51" class="edge">
<title>57444&#45;&gt;71837</title>
<path fill="none" stroke="red" stroke-width="0.1" d="M107.4,-180.58C107.4,-172.62 107.4,-163.75 107.4,-155.26"/>
<polygon fill="red" stroke="red" stroke-width="0.1" points="110.9,-155.34 107.4,-145.34 103.9,-155.35 110.9,-155.34"/>
</g>
<!-- 52074&#45;&gt;48054 -->
<g id="edge11" class="edge">
<title>52074&#45;&gt;48054</title>
<path fill="none" stroke="green" stroke-width="0.19" stroke-dasharray="1,5" d="M993.1,-96.16C1002.66,-84.41 1014.8,-69.49 1025.27,-56.63"/>
<polygon fill="green" stroke="green" stroke-width="0.19" points="1027.76,-59.12 1031.35,-49.16 1022.33,-54.71 1027.76,-59.12"/>
</g>
<!-- 53358 -->
<g id="node33" class="node">
<title>53358</title>
<ellipse fill="white" stroke="black" cx="1048.4" cy="-117.67" rx="27.22" ry="27.22"/>
<text text-anchor="middle" x="1048.4" y="-114.37" font-family="Times,serif" font-size="9.00">53358</text>
</g>
<!-- 53358&#45;&gt;48054 -->
<g id="edge52" class="edge">
<title>53358&#45;&gt;48054</title>
<path fill="none" stroke="green" stroke-width="0.15" d="M1048.4,-90.13C1048.4,-82.18 1048.4,-73.3 1048.4,-64.81"/>
<polygon fill="green" stroke="green" stroke-width="0.15" points="1051.9,-64.96 1048.4,-54.96 1044.9,-64.96 1051.9,-64.96"/>
</g>
<!-- 73454&#45;&gt;63711 -->
<g id="edge56" class="edge">
<title>73454&#45;&gt;63711</title>
<path fill="none" stroke="red" stroke-width="0.41" d="M579.34,-452.45C585.18,-421.71 594.94,-370.38 601.52,-335.77"/>
<polygon fill="red" stroke="red" stroke-width="0.41" points="604.9,-336.69 603.33,-326.22 598.03,-335.39 604.9,-336.69"/>
</g>
<!-- 69361&#45;&gt;63711 -->
<g id="edge38" class="edge">
<title>69361&#45;&gt;63711</title>
<path fill="none" stroke="red" stroke-width="0.63" d="M612.01,-542.59C611.29,-494.42 609.77,-391.94 608.95,-336.7"/>
<polygon fill="red" stroke="red" stroke-width="0.63" points="612.45,-336.89 608.8,-326.94 605.45,-337 612.45,-336.89"/>
</g>
<!-- 69361&#45;&gt;73454 -->
<g id="edge55" class="edge">
<title>69361&#45;&gt;73454</title>
<path fill="none" stroke="green" stroke-width="0.35" d="M602.01,-544.74C597.98,-535.36 593.3,-524.45 588.94,-514.31"/>
<polygon fill="green" stroke="green" stroke-width="0.35" points="592.27,-513.2 585.11,-505.39 585.84,-515.96 592.27,-513.2"/>
</g>
<!-- 68983&#45;&gt;71052 -->
<g id="edge47" class="edge">
<title>68983&#45;&gt;71052</title>
<path fill="none" stroke="green" stroke-width="0.34" d="M236.4,-271.03C236.4,-263.16 236.4,-254.39 236.4,-245.99"/>
<polygon fill="green" stroke="green" stroke-width="0.34" points="239.9,-246.15 236.4,-236.15 232.9,-246.15 239.9,-246.15"/>
</g>
</g>
</svg>
